<?xml version="1.0" encoding="utf-8"?>
<!-- Svg Vector Icons : http://www.onlinewebfonts.com/icon -->
<!DOCTYPE svg PUBLIC "-//W3C//DTD SVG 1.1//EN" "http://www.w3.org/Graphics/SVG/1.1/DTD/svg11.dtd">
<svg version="1.1" xmlns="http://www.w3.org/2000/svg" xmlns:xlink="http://www.w3.org/1999/xlink" x="0px" y="0px" viewBox="0 0 1000 1000" enable-background="new 0 0 1000 1000" xml:space="preserve">
<metadata> Svg Vector Icons : http://www.onlinewebfonts.com/icon </metadata>
<g><g transform="translate(0.000000,511.000000) scale(0.100000,-0.100000)"><path d="M1456.5,4740.2c-161.4-49-196.1-141-196.1-535.3c0-355.5,20.4-422.9,145.1-490.4c65.4-34.7,159.4-36.8,1714.2-36.8s1648.8,2,1714.2,36.8c126.7,67.4,145.1,132.8,145.1,506.7c0,308.5-2,333-47,398.4c-98.1,149.2-2,141-1802.1,138.9C2243.1,4758.6,1489.2,4748.4,1456.5,4740.2z"/><path d="M6347.9,4723.9c-38.8-18.4-92-65.4-116.5-104.2c-45-65.4-47-89.9-47-398.4c0-373.9,20.4-443.4,145.1-506.7c65.4-34.7,188-36.8,1714.2-36.8c1554.9,0,1648.8,2,1714.2,36.8c130.8,69.5,147.1,132.8,141,519c-6.1,380-20.4,418.8-161.4,490.4c-65.4,34.7-188,36.8-1693.8,36.8C6537.9,4760.7,6413.3,4758.6,6347.9,4723.9z"/><path d="M1746.6,2345.6c-8.2-1183-10.2-1205.5-136.9-1691.7c-32.7-118.5-380-1127.8-774.4-2243.4c-469.9-1326-721.2-2067.7-731.5-2145.3c-30.6-277.9,120.5-563.9,361.6-690.6c171.6-87.9,214.5-89.9,2664.3-89.9c2460,0,2470.2,0,2645.9,91.9c237,122.6,386.2,402.5,361.6,674.2c-12.3,122.6-59.3,259.5-1076.8,3136.3C4637.7,580.3,4629.6,604.9,4556,980.8c-55.2,273.8-55.2,279.9-63.3,1364.8l-6.1,1087h-255.4h-253.3V2386.5c0-1154.4,12.3-1324,138.9-1834.8c32.7-128.7,378-1140.1,768.2-2247.5c392.3-1107.4,715.1-2045.2,721.3-2086.1c8.2-57.2,0-85.8-40.9-132.8l-51.1-59.3l-2327.2-6.1c-1279-2.1-2355.8,0-2394.6,6.1c-83.8,16.3-165.5,94-165.5,161.4c0,28.6,314.6,941.9,698.8,2028.9c725.3,2057.5,798.9,2288.4,876.5,2705.2c44.9,241.1,47,310.6,55.2,1383.2l6.1,1127.8h-255.4h-255.4L1746.6,2345.6z"/><path d="M6695.2,26.6c0-2944.2,4.1-3426.4,30.7-3536.7c110.3-467.9,512.8-872.4,990.9-995c159.4-42.9,457.7-47,612.9-12.3c61.3,14.3,200.2,67.4,306.5,118.5c163.5,77.6,220.7,120.5,357.6,259.5c265.6,267.6,388.2,557.8,398.4,941.9c2.1,102.2,4.1,1634.5,2.1,3408l-2.1,3222.1h-275.8h-275.8l-4.1-3416.2l-6.1-3418.2l-59.3-122.6c-77.6-157.3-232.9-312.6-390.2-390.2c-112.4-53.1-141-59.3-337.1-59.3c-190,0-226.8,6.1-333,55.2c-149.1,71.5-316.7,237-394.3,394.3l-59.3,122.6L7251,16.4l-4.1,3416.2h-275.8h-275.8V26.6z"/><path d="M7471.6-923.4c0-2366,2-2398.7,42.9-2488.6c87.9-196.1,269.7-324.9,480.1-343.3c232.9-18.4,455.6,104.2,566,312.6l44.9,81.7l6.1,2417.1l4.1,2415h-572.1h-572.1V-923.4z"/><path d="M1901.9-874.4c-292.2-803-990.9-2827.8-980.7-2840c14.3-12.3,4405.1-22.5,4405.1-10.2c0,22.5-566,1667.2-749.9,2182.1c-128.7,359.6-245.2,684.5-257.4,721.2l-20.4,65.4H3121.7H1944.8L1901.9-874.4z M3185-1138c312.6-171.6,284-631.3-49-770.3c-273.8-114.4-588.4,98.1-588.4,396.4C2547.6-1185,2896.9-980.6,3185-1138z M2492.4-2400.7c245.2-102.1,371.9-414.8,261.5-653.8c-49-110.3-204.3-243.1-318.7-275.8c-373.9-104.2-725.3,271.7-594.6,639.5C1932.6-2437.4,2245.2-2296.5,2492.4-2400.7z M4274-2478.3c98.1-55.2,173.7-179.8,173.7-286c0-304.4-367.8-469.9-592.5-267.7c-98.1,89.9-130.8,167.5-118.5,294.2C3761.2-2486.5,4045.2-2347.5,4274-2478.3z"/></g></g>
</svg>